<svg width="542" height="111" viewBox="0 0 542 111" fill="none" xmlns="http://www.w3.org/2000/svg">
<path d="M68.8929 54.4826C65.7874 52.145 61.1171 50.6154 54.8696 49.7824C52.6532 49.5041 48.1533 49.143 41.3274 48.6863C36.7179 48.4196 33.4054 47.9148 31.4813 47.2237C28.7351 46.2312 27.6451 44.9178 27.6207 43.0746C27.6329 41.3063 28.6864 39.9277 31.2499 38.7696C33.7891 37.6461 37.5826 37.0506 42.5818 37.053C50.0653 37.053 57.4088 38.8883 64.6488 42.5741L65.0994 42.8055L65.4404 42.4267L70.9267 36.3364L70.2995 35.9095C62.9865 30.9566 53.9319 28.4966 43.1907 28.499C35.2078 28.5015 28.9604 29.8453 24.4666 32.6214C19.9667 35.3755 17.6224 39.3103 17.6346 44.1639C17.6102 48.852 19.7049 52.391 23.7298 54.3766C27.1702 56.0859 32.9183 57.163 41.1021 57.7184C50.2662 58.3041 55.9353 58.8875 57.896 59.4032C61.7565 60.4609 63.37 62.2316 63.4005 65.0381C63.3822 67.4409 62.1036 69.2847 59.1929 70.7881C56.1606 72.3091 51.7702 73.105 46.0586 73.102C37.2598 73.102 29.07 70.7771 21.4403 66.1092L20.9288 65.7956L15.6738 72.722L16.1793 73.1281C23.3401 78.7977 33.3019 81.5902 45.9856 81.5902C54.7417 81.5866 61.519 80.1532 66.3172 77.1951C71.1215 74.2528 73.6059 69.921 73.5937 64.4913C73.5998 60.2435 72.0166 56.8227 68.8929 54.4826Z" fill="white"/>
<path d="M73.0781 38.4172H96.6796V80.4317H106.185V38.4172H129.786V29.728H73.0781V38.4172Z" fill="white"/>
<path d="M143.788 52.9143V38.4173H171.914C178.588 38.5177 181.401 40.8365 181.474 45.9422C181.401 50.685 178.837 52.8156 172.663 52.9143H143.788ZM178.831 60.9994C182.381 60.2626 185.255 58.7617 187.399 56.4861C189.938 53.8094 191.198 50.2478 191.192 45.9398C191.198 41.0319 189.652 37.0277 186.552 34.1025C183.453 31.1645 179.185 29.7207 173.887 29.7281H134.283V80.4317H143.788V61.6059H167.713L181.078 80.4317H192.203L191.485 79.3941L178.831 60.9994Z" fill="white"/>
<path d="M236.599 60.6901H213.491L225.115 38.8453L236.599 60.6901ZM230.589 29.728H219.488L192.672 80.431H203.121L208.814 69.3799H241.263L246.957 80.431H257.412L256.894 79.4568L230.589 29.728Z" fill="white"/>
<path d="M300.761 38.4172V29.728H244.053V38.4172H267.654V80.4317H277.159V38.4172H300.761Z" fill="white"/>
<path d="M331.329 60.6913H308.221L319.845 38.8453L331.329 60.6913ZM325.319 29.728H314.225L287.402 80.431H297.857L303.551 69.3811H336L341.687 80.431H352.148L351.631 79.4598L325.319 29.728Z" fill="white"/>
<path d="M411.517 52.9146V38.417H439.85C446.383 38.5175 449.129 40.8246 449.203 45.9395C449.129 50.6848 446.566 52.8154 440.385 52.9146H411.517ZM441.822 29.7266H402.012V80.4308H411.517V61.6032L440.251 61.6056C446.213 61.6056 450.847 60.2916 454.08 57.5624C457.319 54.8369 458.927 50.8431 458.921 45.8025C458.927 40.9854 457.38 37.025 454.281 34.1022C451.181 31.1691 446.986 29.7223 441.822 29.7266Z" fill="white"/>
<path d="M460.68 29.7251V38.4173H484.275V80.4312H493.786V38.4149L517.382 38.4173V29.7251H460.68Z" fill="white"/>
<path d="M369.404 53.5557C361.981 53.5557 355.965 59.5717 355.965 66.9919C355.965 74.4164 361.981 80.4307 369.404 80.4307C376.826 80.4307 382.842 74.4164 382.842 66.9919C382.842 59.5717 376.826 53.5557 369.404 53.5557Z" fill="white"/>
<path d="M369.063 43.1649C369.063 35.7435 363.047 29.728 355.624 29.728C348.202 29.728 342.186 35.7435 342.186 43.1649C342.186 50.5858 348.202 56.6024 355.624 56.6024C363.047 56.6024 369.063 50.5858 369.063 43.1649Z" fill="white"/>
<path d="M383.232 29.7271C375.809 29.7271 369.793 35.7437 369.793 43.1633C369.793 50.5848 375.809 56.6015 383.232 56.6015C390.654 56.6015 396.67 50.5848 396.67 43.1633C396.67 35.7437 390.654 29.7271 383.232 29.7271Z" fill="white"/>
</svg>
